<?xml version="1.0" encoding="UTF-8" standalone="no"?>
<svg
   width="460.8pt"
   height="345.6pt"
   viewBox="0 0 460.8 345.6"
   version="1.1"
   id="svg327"
   sodipodi:docname="pyhep-num-registrations.svg"
   inkscape:version="1.1.2 (0a00cf5339, 2022-02-04)"
   xmlns:inkscape="http://www.inkscape.org/namespaces/inkscape"
   xmlns:sodipodi="http://sodipodi.sourceforge.net/DTD/sodipodi-0.dtd"
   xmlns:xlink="http://www.w3.org/1999/xlink"
   xmlns="http://www.w3.org/2000/svg"
   xmlns:svg="http://www.w3.org/2000/svg"
   xmlns:rdf="http://www.w3.org/1999/02/22-rdf-syntax-ns#"
   xmlns:cc="http://creativecommons.org/ns#"
   xmlns:dc="http://purl.org/dc/elements/1.1/">
  <sodipodi:namedview
     id="namedview329"
     pagecolor="#ffffff"
     bordercolor="#666666"
     borderopacity="1.0"
     inkscape:pageshadow="2"
     inkscape:pageopacity="0.0"
     inkscape:pagecheckerboard="0"
     inkscape:document-units="pt"
     showgrid="false"
     inkscape:object-nodes="true"
     inkscape:object-paths="false"
     inkscape:zoom="2.1419726"
     inkscape:cx="307.19348"
     inkscape:cy="211.95416"
     inkscape:window-width="2560"
     inkscape:window-height="1371"
     inkscape:window-x="1920"
     inkscape:window-y="32"
     inkscape:window-maximized="1"
     inkscape:current-layer="svg327" />
  <metadata
     id="metadata2">
    <rdf:RDF>
      <cc:Work>
        <dc:type
           rdf:resource="http://purl.org/dc/dcmitype/StillImage" />
        <dc:date>2022-09-02T21:44:49.944830</dc:date>
        <dc:format>image/svg+xml</dc:format>
        <dc:creator>
          <cc:Agent>
            <dc:title>Matplotlib v3.5.3, https://matplotlib.org/</dc:title>
          </cc:Agent>
        </dc:creator>
      </cc:Work>
    </rdf:RDF>
  </metadata>
  <defs
     id="defs6">
    <style
       type="text/css"
       id="style4">*{stroke-linejoin: round; stroke-linecap: butt}</style>
  </defs>
  <path
     d="M 0,345.6 H 460.8 V 0 H 0 Z"
     style="fill:#ffffff"
     id="path8" />
  <g
     id="patch_2">
    <path
       d="M 57.6,307.584 H 414.72 V 41.472 H 57.6 Z"
       style="fill:#ffffff"
       id="path11" />
  </g>
  <g
     id="patch_3"
     style="stroke:#1f77b4;stroke-opacity:1">
    <path
       d="M 73.832727,307.584 H 127.94182 V 294.55761 H 73.832727 Z"
       clip-path="url(#p7f550a3938)"
       style="fill:#1f77b4;stroke:#1f77b4;stroke-opacity:1"
       id="path14" />
  </g>
  <g
     id="patch_4"
     style="stroke:#1f77b4;stroke-opacity:1">
    <path
       d="m 141.46909,307.584 h 54.10909 v -10.53605 h -54.10909 z"
       clip-path="url(#p7f550a3938)"
       style="fill:#1f77b4;stroke:#1f77b4;stroke-opacity:1"
       id="path17" />
  </g>
  <g
     id="patch_5"
     style="stroke:#1f77b4;stroke-opacity:1">
    <path
       d="m 209.10545,307.584 h 54.10909 V 116.01937 h -54.10909 z"
       clip-path="url(#p7f550a3938)"
       style="fill:#1f77b4;stroke:#1f77b4;stroke-opacity:1"
       id="path20" />
  </g>
  <g
     id="patch_6"
     style="stroke:#1f77b4;stroke-opacity:1">
    <path
       d="m 276.74182,307.584 h 54.10909 V 54.144 h -54.10909 z"
       clip-path="url(#p7f550a3938)"
       style="fill:#1f77b4;stroke:#1f77b4;stroke-opacity:1"
       id="path23" />
  </g>
  <g
     id="patch_7"
     style="stroke:#1f77b4;stroke-opacity:1">
    <path
       d="m 344.37818,307.584 h 54.10909 v -168.96 h -54.10909 z"
       clip-path="url(#p7f550a3938)"
       style="fill:#1f77b4;stroke:#1f77b4;stroke-opacity:1"
       id="path26" />
  </g>
  <g
     id="matplotlib.axis_1">
    <g
       id="xtick_1">
      <g
         id="line2d_1">
        <defs
           id="defs30">
          <path
             id="meac9353f7b"
             d="M 0,0 V 3.5"
             style="stroke:#000000;stroke-width:0.8" />
        </defs>
        <g
           id="g34">
          <use
             xlink:href="#meac9353f7b"
             x="100.88728"
             y="307.58401"
             style="stroke:#000000;stroke-width:0.8"
             id="use32"
             width="100%"
             height="100%" />
        </g>
      </g>
      <g
         id="text_1">
        <!-- 2018 -->
        <g
           transform="matrix(0.1,0,0,-0.1,88.162273,322.18244)"
           id="g51">
          <defs
             id="defs41">
            <path
               id="DejaVuSans-32"
               d="M 1228,531 H 3431 V 0 H 469 v 531 q 359,372 979,998 621,627 780,809 303,340 423,576 121,236 121,464 0,372 -261,606 -261,235 -680,235 -297,0 -627,-103 -329,-103 -704,-313 v 638 q 381,153 712,231 332,78 607,78 725,0 1156,-363 431,-362 431,-968 0,-288 -108,-546 -107,-257 -392,-607 -78,-91 -497,-524 Q 1991,1309 1228,531 Z"
               transform="scale(0.015625)" />
            <path
               id="DejaVuSans-30"
               d="m 2034,4250 q -487,0 -733,-480 -245,-479 -245,-1442 0,-959 245,-1439 246,-480 733,-480 491,0 736,480 246,480 246,1439 0,963 -246,1442 -245,480 -736,480 z m 0,500 q 785,0 1199,-621 414,-620 414,-1801 0,-1178 -414,-1799 -414,-620 -1199,-620 -784,0 -1198,620 -414,621 -414,1799 0,1181 414,1801 414,621 1198,621 z"
               transform="scale(0.015625)" />
            <path
               id="DejaVuSans-31"
               d="M 794,531 H 1825 V 4091 L 703,3866 v 575 l 1116,225 h 631 V 531 H 3481 V 0 H 794 Z"
               transform="scale(0.015625)" />
            <path
               id="DejaVuSans-38"
               d="m 2034,2216 q -450,0 -708,-241 -257,-241 -257,-662 0,-422 257,-663 258,-241 708,-241 450,0 709,242 260,243 260,662 0,421 -258,662 -257,241 -711,241 z m -631,268 q -406,100 -633,378 -226,279 -226,679 0,559 398,884 399,325 1092,325 697,0 1094,-325 397,-325 397,-884 0,-400 -227,-679 -226,-278 -629,-378 456,-106 710,-416 255,-309 255,-755 Q 3634,634 3220,271 2806,-91 2034,-91 1263,-91 848,271 434,634 434,1313 q 0,446 256,755 257,310 713,416 z m -231,997 q 0,-362 226,-565 227,-203 636,-203 407,0 636,203 230,203 230,565 0,363 -230,566 -229,203 -636,203 -409,0 -636,-203 -226,-203 -226,-566 z"
               transform="scale(0.015625)" />
          </defs>
          <use
             xlink:href="#DejaVuSans-32"
             id="use43"
             x="0"
             y="0"
             width="100%"
             height="100%" />
          <use
             xlink:href="#DejaVuSans-30"
             x="63.623047"
             id="use45"
             y="0"
             width="100%"
             height="100%" />
          <use
             xlink:href="#DejaVuSans-31"
             x="127.24609"
             id="use47"
             y="0"
             width="100%"
             height="100%" />
          <use
             xlink:href="#DejaVuSans-38"
             x="190.86914"
             id="use49"
             y="0"
             width="100%"
             height="100%" />
        </g>
      </g>
    </g>
    <g
       id="xtick_2">
      <g
         id="line2d_2">
        <g
           id="g57">
          <use
             xlink:href="#meac9353f7b"
             x="168.52364"
             y="307.58401"
             style="stroke:#000000;stroke-width:0.8"
             id="use55"
             width="100%"
             height="100%" />
        </g>
      </g>
      <g
         id="text_2">
        <!-- 2019 -->
        <g
           transform="matrix(0.1,0,0,-0.1,155.79864,322.18244)"
           id="g71">
          <defs
             id="defs61">
            <path
               id="DejaVuSans-39"
               d="m 703,97 v 575 q 238,-113 481,-172 244,-59 479,-59 625,0 954,420 330,420 377,1277 -181,-269 -460,-413 -278,-144 -615,-144 -700,0 -1108,423 -408,424 -408,1159 0,718 425,1152 425,435 1131,435 810,0 1236,-621 427,-620 427,-1801 Q 3622,1225 3098,567 2575,-91 1691,-91 1453,-91 1209,-44 966,3 703,97 Z m 1256,1978 q 425,0 673,290 249,291 249,798 0,503 -249,795 -248,292 -673,292 -425,0 -673,-292 -248,-292 -248,-795 0,-507 248,-798 248,-290 673,-290 z"
               transform="scale(0.015625)" />
          </defs>
          <use
             xlink:href="#DejaVuSans-32"
             id="use63"
             x="0"
             y="0"
             width="100%"
             height="100%" />
          <use
             xlink:href="#DejaVuSans-30"
             x="63.623047"
             id="use65"
             y="0"
             width="100%"
             height="100%" />
          <use
             xlink:href="#DejaVuSans-31"
             x="127.24609"
             id="use67"
             y="0"
             width="100%"
             height="100%" />
          <use
             xlink:href="#DejaVuSans-39"
             x="190.86914"
             id="use69"
             y="0"
             width="100%"
             height="100%" />
        </g>
      </g>
    </g>
    <g
       id="xtick_3">
      <g
         id="line2d_3">
        <g
           id="g77">
          <use
             xlink:href="#meac9353f7b"
             x="236.16"
             y="307.58401"
             style="stroke:#000000;stroke-width:0.8"
             id="use75"
             width="100%"
             height="100%" />
        </g>
      </g>
      <g
         id="text_3">
        <!-- 2020 -->
        <g
           transform="matrix(0.1,0,0,-0.1,223.435,322.18244)"
           id="g88">
          <use
             xlink:href="#DejaVuSans-32"
             id="use80"
             x="0"
             y="0"
             width="100%"
             height="100%" />
          <use
             xlink:href="#DejaVuSans-30"
             x="63.623047"
             id="use82"
             y="0"
             width="100%"
             height="100%" />
          <use
             xlink:href="#DejaVuSans-32"
             x="127.24609"
             id="use84"
             y="0"
             width="100%"
             height="100%" />
          <use
             xlink:href="#DejaVuSans-30"
             x="190.86914"
             id="use86"
             y="0"
             width="100%"
             height="100%" />
        </g>
      </g>
    </g>
    <g
       id="xtick_4">
      <g
         id="line2d_4">
        <g
           id="g94">
          <use
             xlink:href="#meac9353f7b"
             x="303.79636"
             y="307.58401"
             style="stroke:#000000;stroke-width:0.8"
             id="use92"
             width="100%"
             height="100%" />
        </g>
      </g>
      <g
         id="text_4">
        <!-- 2021 -->
        <g
           transform="matrix(0.1,0,0,-0.1,291.07136,322.18244)"
           id="g105">
          <use
             xlink:href="#DejaVuSans-32"
             id="use97"
             x="0"
             y="0"
             width="100%"
             height="100%" />
          <use
             xlink:href="#DejaVuSans-30"
             x="63.623047"
             id="use99"
             y="0"
             width="100%"
             height="100%" />
          <use
             xlink:href="#DejaVuSans-32"
             x="127.24609"
             id="use101"
             y="0"
             width="100%"
             height="100%" />
          <use
             xlink:href="#DejaVuSans-31"
             x="190.86914"
             id="use103"
             y="0"
             width="100%"
             height="100%" />
        </g>
      </g>
    </g>
    <g
       id="xtick_5">
      <g
         id="line2d_5">
        <g
           id="g111">
          <use
             xlink:href="#meac9353f7b"
             x="371.43274"
             y="307.58401"
             style="stroke:#000000;stroke-width:0.8"
             id="use109"
             width="100%"
             height="100%" />
        </g>
      </g>
      <g
         id="text_5">
        <!-- 2022 -->
        <g
           transform="matrix(0.1,0,0,-0.1,358.70773,322.18244)"
           id="g122">
          <use
             xlink:href="#DejaVuSans-32"
             id="use114"
             x="0"
             y="0"
             width="100%"
             height="100%" />
          <use
             xlink:href="#DejaVuSans-30"
             x="63.623047"
             id="use116"
             y="0"
             width="100%"
             height="100%" />
          <use
             xlink:href="#DejaVuSans-32"
             x="127.24609"
             id="use118"
             y="0"
             width="100%"
             height="100%" />
          <use
             xlink:href="#DejaVuSans-32"
             x="190.86914"
             id="use120"
             y="0"
             width="100%"
             height="100%" />
        </g>
      </g>
    </g>
  </g>
  <g
     id="matplotlib.axis_2">
    <g
       id="ytick_1">
      <g
         id="line2d_6">
        <defs
           id="defs128">
          <path
             id="ma431c886be"
             d="M 0,0 H -3.5"
             style="stroke:#000000;stroke-width:0.8" />
        </defs>
        <g
           id="g132">
          <use
             xlink:href="#ma431c886be"
             x="57.599998"
             y="307.58401"
             style="stroke:#000000;stroke-width:0.8"
             id="use130"
             width="100%"
             height="100%" />
        </g>
      </g>
      <g
         id="text_6">
        <!-- 0 -->
        <g
           transform="matrix(0.1,0,0,-0.1,44.2375,311.38322)"
           id="g137">
          <use
             xlink:href="#DejaVuSans-30"
             id="use135"
             x="0"
             y="0"
             width="100%"
             height="100%" />
        </g>
      </g>
    </g>
    <g
       id="ytick_2">
      <g
         id="line2d_7">
        <g
           id="g143">
          <use
             xlink:href="#ma431c886be"
             x="57.599998"
             y="269.27109"
             style="stroke:#000000;stroke-width:0.8"
             id="use141"
             width="100%"
             height="100%" />
        </g>
      </g>
      <g
         id="text_7">
        <!-- 200 -->
        <g
           transform="matrix(0.1,0,0,-0.1,31.5125,273.07029)"
           id="g152">
          <use
             xlink:href="#DejaVuSans-32"
             id="use146"
             x="0"
             y="0"
             width="100%"
             height="100%" />
          <use
             xlink:href="#DejaVuSans-30"
             x="63.623047"
             id="use148"
             y="0"
             width="100%"
             height="100%" />
          <use
             xlink:href="#DejaVuSans-30"
             x="127.24609"
             id="use150"
             y="0"
             width="100%"
             height="100%" />
        </g>
      </g>
    </g>
    <g
       id="ytick_3">
      <g
         id="line2d_8">
        <g
           id="g158">
          <use
             xlink:href="#ma431c886be"
             x="57.599998"
             y="230.95815"
             style="stroke:#000000;stroke-width:0.8"
             id="use156"
             width="100%"
             height="100%" />
        </g>
      </g>
      <g
         id="text_8">
        <!-- 400 -->
        <g
           transform="matrix(0.1,0,0,-0.1,31.5125,234.75737)"
           id="g170">
          <defs
             id="defs162">
            <path
               id="DejaVuSans-34"
               d="M 2419,4116 825,1625 h 1594 z m -166,550 h 794 V 1625 h 666 V 1100 H 3047 V 0 H 2419 V 1100 H 313 v 609 z"
               transform="scale(0.015625)" />
          </defs>
          <use
             xlink:href="#DejaVuSans-34"
             id="use164"
             x="0"
             y="0"
             width="100%"
             height="100%" />
          <use
             xlink:href="#DejaVuSans-30"
             x="63.623047"
             id="use166"
             y="0"
             width="100%"
             height="100%" />
          <use
             xlink:href="#DejaVuSans-30"
             x="127.24609"
             id="use168"
             y="0"
             width="100%"
             height="100%" />
        </g>
      </g>
    </g>
    <g
       id="ytick_4">
      <g
         id="line2d_9">
        <g
           id="g176">
          <use
             xlink:href="#ma431c886be"
             x="57.599998"
             y="192.64522"
             style="stroke:#000000;stroke-width:0.8"
             id="use174"
             width="100%"
             height="100%" />
        </g>
      </g>
      <g
         id="text_9">
        <!-- 600 -->
        <g
           transform="matrix(0.1,0,0,-0.1,31.5125,196.44444)"
           id="g188">
          <defs
             id="defs180">
            <path
               id="DejaVuSans-36"
               d="m 2113,2584 q -425,0 -674,-291 -248,-290 -248,-796 0,-503 248,-796 249,-292 674,-292 425,0 673,292 248,293 248,796 0,506 -248,796 -248,291 -673,291 z m 1253,1979 v -575 q -238,112 -480,171 -242,60 -480,60 -625,0 -955,-422 -329,-422 -376,-1275 184,272 462,417 279,145 613,145 703,0 1111,-427 408,-426 408,-1160 0,-719 -425,-1154 -425,-434 -1131,-434 -810,0 -1238,620 -428,621 -428,1799 0,1106 525,1764 525,658 1409,658 238,0 480,-47 242,-47 505,-140 z"
               transform="scale(0.015625)" />
          </defs>
          <use
             xlink:href="#DejaVuSans-36"
             id="use182"
             x="0"
             y="0"
             width="100%"
             height="100%" />
          <use
             xlink:href="#DejaVuSans-30"
             x="63.623047"
             id="use184"
             y="0"
             width="100%"
             height="100%" />
          <use
             xlink:href="#DejaVuSans-30"
             x="127.24609"
             id="use186"
             y="0"
             width="100%"
             height="100%" />
        </g>
      </g>
    </g>
    <g
       id="ytick_5">
      <g
         id="line2d_10">
        <g
           id="g194">
          <use
             xlink:href="#ma431c886be"
             x="57.599998"
             y="154.33231"
             style="stroke:#000000;stroke-width:0.8"
             id="use192"
             width="100%"
             height="100%" />
        </g>
      </g>
      <g
         id="text_10">
        <!-- 800 -->
        <g
           transform="matrix(0.1,0,0,-0.1,31.5125,158.13152)"
           id="g203">
          <use
             xlink:href="#DejaVuSans-38"
             id="use197"
             x="0"
             y="0"
             width="100%"
             height="100%" />
          <use
             xlink:href="#DejaVuSans-30"
             x="63.623047"
             id="use199"
             y="0"
             width="100%"
             height="100%" />
          <use
             xlink:href="#DejaVuSans-30"
             x="127.24609"
             id="use201"
             y="0"
             width="100%"
             height="100%" />
        </g>
      </g>
    </g>
    <g
       id="ytick_6">
      <g
         id="line2d_11">
        <g
           id="g209">
          <use
             xlink:href="#ma431c886be"
             x="57.599998"
             y="116.01937"
             style="stroke:#000000;stroke-width:0.8"
             id="use207"
             width="100%"
             height="100%" />
        </g>
      </g>
      <g
         id="text_11">
        <!-- 1000 -->
        <g
           transform="matrix(0.1,0,0,-0.1,25.15,119.81859)"
           id="g220">
          <use
             xlink:href="#DejaVuSans-31"
             id="use212"
             x="0"
             y="0"
             width="100%"
             height="100%" />
          <use
             xlink:href="#DejaVuSans-30"
             x="63.623047"
             id="use214"
             y="0"
             width="100%"
             height="100%" />
          <use
             xlink:href="#DejaVuSans-30"
             x="127.24609"
             id="use216"
             y="0"
             width="100%"
             height="100%" />
          <use
             xlink:href="#DejaVuSans-30"
             x="190.86914"
             id="use218"
             y="0"
             width="100%"
             height="100%" />
        </g>
      </g>
    </g>
    <g
       id="ytick_7">
      <g
         id="line2d_12">
        <g
           id="g226">
          <use
             xlink:href="#ma431c886be"
             x="57.599998"
             y="77.706451"
             style="stroke:#000000;stroke-width:0.8"
             id="use224"
             width="100%"
             height="100%" />
        </g>
      </g>
      <g
         id="text_12">
        <!-- 1200 -->
        <g
           transform="matrix(0.1,0,0,-0.1,25.15,81.505668)"
           id="g237">
          <use
             xlink:href="#DejaVuSans-31"
             id="use229"
             x="0"
             y="0"
             width="100%"
             height="100%" />
          <use
             xlink:href="#DejaVuSans-32"
             x="63.623047"
             id="use231"
             y="0"
             width="100%"
             height="100%" />
          <use
             xlink:href="#DejaVuSans-30"
             x="127.24609"
             id="use233"
             y="0"
             width="100%"
             height="100%" />
          <use
             xlink:href="#DejaVuSans-30"
             x="190.86914"
             id="use235"
             y="0"
             width="100%"
             height="100%" />
        </g>
      </g>
    </g>
    <g
       id="text_13">
      <!-- Number of registrations -->
      <g
         transform="matrix(0,-0.1,-0.1,0,19.070312,234.06081)"
         id="g304">
        <defs
           id="defs256">
          <path
             id="DejaVuSans-4e"
             d="m 628,4666 h 850 L 3547,763 v 3903 h 612 V 0 H 3309 L 1241,3903 V 0 H 628 Z"
             transform="scale(0.015625)" />
          <path
             id="DejaVuSans-75"
             d="m 544,1381 v 2119 h 575 V 1403 q 0,-497 193,-746 194,-248 582,-248 465,0 735,297 271,297 271,810 v 1984 h 575 V 0 H 2900 V 538 Q 2691,219 2414,64 2138,-91 1772,-91 1169,-91 856,284 544,659 544,1381 Z m 1447,2203 z"
             transform="scale(0.015625)" />
          <path
             id="DejaVuSans-6d"
             d="m 3328,2828 q 216,388 516,572 300,184 706,184 547,0 844,-383 297,-382 297,-1088 V 0 h -578 v 2094 q 0,503 -179,746 -178,244 -543,244 -447,0 -707,-297 -259,-296 -259,-809 V 0 h -578 v 2094 q 0,506 -178,748 -178,242 -550,242 -441,0 -701,-298 -259,-298 -259,-808 V 0 H 581 v 3500 h 578 v -544 q 197,322 472,475 275,153 653,153 382,0 649,-194 267,-193 395,-562 z"
             transform="scale(0.015625)" />
          <path
             id="DejaVuSans-62"
             d="m 3116,1747 q 0,634 -261,995 -261,361 -717,361 -457,0 -718,-361 -261,-361 -261,-995 0,-634 261,-995 261,-361 718,-361 456,0 717,361 261,361 261,995 z M 1159,2969 q 182,312 458,463 277,152 661,152 638,0 1036,-506 399,-506 399,-1331 Q 3713,922 3314,415 2916,-91 2278,-91 1894,-91 1617,61 1341,213 1159,525 V 0 H 581 v 4863 h 578 z"
             transform="scale(0.015625)" />
          <path
             id="DejaVuSans-65"
             d="M 3597,1894 V 1613 H 953 q 38,-594 358,-905 320,-311 892,-311 331,0 642,81 311,81 618,244 V 178 Q 3153,47 2828,-22 2503,-91 2169,-91 1331,-91 842,396 353,884 353,1716 q 0,859 464,1363 464,505 1252,505 706,0 1117,-455 411,-454 411,-1235 z m -575,169 q -6,471 -264,752 -258,282 -683,282 -481,0 -770,-272 -289,-272 -333,-766 z"
             transform="scale(0.015625)" />
          <path
             id="DejaVuSans-72"
             d="m 2631,2963 q -97,56 -211,82 -114,27 -251,27 -488,0 -749,-317 -261,-317 -261,-911 V 0 H 581 v 3500 h 578 v -544 q 182,319 472,473 291,155 707,155 59,0 131,-8 72,-7 159,-23 z"
             transform="scale(0.015625)" />
          <path
             id="DejaVuSans-20"
             transform="scale(0.015625)"
             d="" />
          <path
             id="DejaVuSans-6f"
             d="m 1959,3097 q -462,0 -731,-361 -269,-361 -269,-989 0,-628 267,-989 268,-361 733,-361 460,0 728,362 269,363 269,988 0,622 -269,986 -268,364 -728,364 z m 0,487 q 750,0 1178,-488 429,-487 429,-1349 Q 3566,888 3137,398 2709,-91 1959,-91 1206,-91 779,398 353,888 353,1747 q 0,862 426,1349 427,488 1180,488 z"
             transform="scale(0.015625)" />
          <path
             id="DejaVuSans-66"
             d="m 2375,4863 v -479 h -550 q -309,0 -430,-125 -120,-125 -120,-450 v -309 h 947 V 3053 H 1275 V 0 H 697 V 3053 H 147 v 447 h 550 v 244 q 0,584 272,851 272,268 862,268 z"
             transform="scale(0.015625)" />
          <path
             id="DejaVuSans-67"
             d="m 2906,1791 q 0,625 -258,968 -257,344 -723,344 -462,0 -720,-344 -258,-343 -258,-968 0,-622 258,-966 258,-344 720,-344 466,0 723,344 258,344 258,966 z M 3481,434 q 0,-893 -397,-1329 -396,-436 -1215,-436 -303,0 -572,45 -269,45 -522,139 v 559 q 253,-137 500,-202 247,-66 503,-66 566,0 847,295 281,295 281,892 V 616 Q 2728,306 2450,153 2172,0 1784,0 1141,0 747,490 353,981 353,1791 q 0,812 394,1302 394,491 1037,491 388,0 666,-153 278,-153 456,-462 v 531 h 575 z"
             transform="scale(0.015625)" />
          <path
             id="DejaVuSans-69"
             d="m 603,3500 h 575 V 0 H 603 Z m 0,1363 h 575 V 4134 H 603 Z"
             transform="scale(0.015625)" />
          <path
             id="DejaVuSans-73"
             d="m 2834,3397 v -544 q -243,125 -506,187 -262,63 -544,63 -428,0 -642,-131 -214,-131 -214,-394 0,-200 153,-314 153,-114 616,-217 l 197,-44 q 612,-131 870,-370 258,-239 258,-667 0,-488 -386,-773 Q 2250,-91 1575,-91 1294,-91 989,-36 684,19 347,128 v 594 q 319,-166 628,-249 309,-82 613,-82 406,0 624,139 219,139 219,392 0,234 -158,359 -157,125 -692,241 l -200,47 q -534,112 -772,345 -237,233 -237,639 0,494 350,762 350,269 994,269 318,0 599,-47 282,-46 519,-140 z"
             transform="scale(0.015625)" />
          <path
             id="DejaVuSans-74"
             d="M 1172,4494 V 3500 H 2356 V 3053 H 1172 V 1153 q 0,-428 117,-550 117,-122 477,-122 h 590 V 0 H 1766 Q 1100,0 847,248 594,497 594,1153 V 3053 H 172 v 447 h 422 v 994 z"
             transform="scale(0.015625)" />
          <path
             id="DejaVuSans-61"
             d="m 2194,1759 q -697,0 -966,-159 -269,-159 -269,-544 0,-306 202,-486 202,-179 548,-179 479,0 768,339 289,339 289,901 v 128 z m 1147,238 V 0 H 2766 V 531 Q 2569,213 2275,61 1981,-91 1556,-91 q -537,0 -855,302 -317,302 -317,808 0,590 395,890 396,300 1180,300 h 807 v 57 q 0,397 -261,614 -261,217 -733,217 -300,0 -585,-72 -284,-72 -546,-216 v 532 q 315,122 612,182 297,61 578,61 760,0 1135,-394 375,-393 375,-1193 z"
             transform="scale(0.015625)" />
          <path
             id="DejaVuSans-6e"
             d="M 3513,2113 V 0 h -575 v 2094 q 0,497 -194,743 -194,247 -581,247 -466,0 -735,-297 -269,-296 -269,-809 V 0 H 581 v 3500 h 578 v -544 q 207,316 486,472 280,156 646,156 603,0 912,-373 310,-373 310,-1098 z"
             transform="scale(0.015625)" />
        </defs>
        <use
           xlink:href="#DejaVuSans-4e"
           id="use258"
           x="0"
           y="0"
           width="100%"
           height="100%" />
        <use
           xlink:href="#DejaVuSans-75"
           x="74.804688"
           id="use260"
           y="0"
           width="100%"
           height="100%" />
        <use
           xlink:href="#DejaVuSans-6d"
           x="138.18359"
           id="use262"
           y="0"
           width="100%"
           height="100%" />
        <use
           xlink:href="#DejaVuSans-62"
           x="235.5957"
           id="use264"
           y="0"
           width="100%"
           height="100%" />
        <use
           xlink:href="#DejaVuSans-65"
           x="299.07227"
           id="use266"
           y="0"
           width="100%"
           height="100%" />
        <use
           xlink:href="#DejaVuSans-72"
           x="360.5957"
           id="use268"
           y="0"
           width="100%"
           height="100%" />
        <use
           xlink:href="#DejaVuSans-20"
           x="401.70898"
           id="use270"
           y="0"
           width="100%"
           height="100%" />
        <use
           xlink:href="#DejaVuSans-6f"
           x="433.49609"
           id="use272"
           y="0"
           width="100%"
           height="100%" />
        <use
           xlink:href="#DejaVuSans-66"
           x="494.67773"
           id="use274"
           y="0"
           width="100%"
           height="100%" />
        <use
           xlink:href="#DejaVuSans-20"
           x="529.88281"
           id="use276"
           y="0"
           width="100%"
           height="100%" />
        <use
           xlink:href="#DejaVuSans-72"
           x="561.66992"
           id="use278"
           y="0"
           width="100%"
           height="100%" />
        <use
           xlink:href="#DejaVuSans-65"
           x="600.5332"
           id="use280"
           y="0"
           width="100%"
           height="100%" />
        <use
           xlink:href="#DejaVuSans-67"
           x="662.05664"
           id="use282"
           y="0"
           width="100%"
           height="100%" />
        <use
           xlink:href="#DejaVuSans-69"
           x="725.5332"
           id="use284"
           y="0"
           width="100%"
           height="100%" />
        <use
           xlink:href="#DejaVuSans-73"
           x="753.31641"
           id="use286"
           y="0"
           width="100%"
           height="100%" />
        <use
           xlink:href="#DejaVuSans-74"
           x="805.41602"
           id="use288"
           y="0"
           width="100%"
           height="100%" />
        <use
           xlink:href="#DejaVuSans-72"
           x="844.625"
           id="use290"
           y="0"
           width="100%"
           height="100%" />
        <use
           xlink:href="#DejaVuSans-61"
           x="885.73828"
           id="use292"
           y="0"
           width="100%"
           height="100%" />
        <use
           xlink:href="#DejaVuSans-74"
           x="947.01758"
           id="use294"
           y="0"
           width="100%"
           height="100%" />
        <use
           xlink:href="#DejaVuSans-69"
           x="986.22656"
           id="use296"
           y="0"
           width="100%"
           height="100%" />
        <use
           xlink:href="#DejaVuSans-6f"
           x="1014.0098"
           id="use298"
           y="0"
           width="100%"
           height="100%" />
        <use
           xlink:href="#DejaVuSans-6e"
           x="1075.1914"
           id="use300"
           y="0"
           width="100%"
           height="100%" />
        <use
           xlink:href="#DejaVuSans-73"
           x="1138.5703"
           id="use302"
           y="0"
           width="100%"
           height="100%" />
      </g>
    </g>
  </g>
  <g
     id="patch_8">
    <path
       d="M 57.6,307.584 V 41.472"
       style="fill:none;stroke:#000000;stroke-width:0.8;stroke-linecap:square;stroke-linejoin:miter"
       id="path308" />
  </g>
  <g
     id="patch_9">
    <path
       d="M 414.72,307.584 V 41.472"
       style="fill:none;stroke:#000000;stroke-width:0.8;stroke-linecap:square;stroke-linejoin:miter"
       id="path311" />
  </g>
  <g
     id="patch_10">
    <path
       d="M 57.6,307.584 H 414.72"
       style="fill:none;stroke:#000000;stroke-width:0.8;stroke-linecap:square;stroke-linejoin:miter"
       id="path314" />
  </g>
  <g
     id="patch_11">
    <path
       d="M 57.6,41.472 H 414.72"
       style="fill:none;stroke:#000000;stroke-width:0.8;stroke-linecap:square;stroke-linejoin:miter"
       id="path317" />
  </g>
  <g
     id="g1148"
     transform="translate(0,-206.63524)">
    <path
       d="M 344.37818,223.07068 V 307.584 m 54.10909,0 v -84.51332"
       clip-path="url(#p7f550a3938)"
       style="fill:none;stroke:#1f77b4;stroke-width:1;stroke-miterlimit:4;stroke-dasharray:1, 1;stroke-dashoffset:0;stroke-opacity:1"
       id="path1146"
       sodipodi:nodetypes="cccc"
       transform="translate(2e-6,37.67524)" />
  </g>
  <defs
     id="defs325">
    <clipPath
       id="p7f550a3938">
      <rect
         x="57.6"
         y="41.472"
         width="357.12"
         height="266.112"
         id="rect322" />
    </clipPath>
  </defs>
  <text
     xml:space="preserve"
     style="font-size:9.98387px;line-height:1.25;font-family:'DejaVu Sans';-inkscape-font-specification:'DejaVu Sans';text-align:center;text-anchor:middle;fill:#1f77b4;fill-opacity:1;stroke-width:0.623992"
     x="236.21605"
     y="97.068604"
     id="text11289"><tspan
       sodipodi:role="line"
       style="text-align:center;text-anchor:middle;fill:#1f77b4;fill-opacity:1;stroke-width:0.623992"
       x="236.21605"
       y="97.068604"
       id="tspan19567">capped at</tspan><tspan
       sodipodi:role="line"
       style="text-align:center;text-anchor:middle;fill:#1f77b4;fill-opacity:1;stroke-width:0.623992"
       x="236.21605"
       y="109.54844"
       id="tspan26355">1000</tspan></text>
  <text
     xml:space="preserve"
     style="font-size:9.98387px;line-height:1.25;font-family:'DejaVu Sans';-inkscape-font-specification:'DejaVu Sans';text-align:center;text-anchor:middle;fill:#1f77b4;fill-opacity:1;stroke-width:0.623992"
     x="371.48877"
     y="131.96318"
     id="text26639"><tspan
       sodipodi:role="line"
       style="text-align:center;text-anchor:middle;fill:#1f77b4;fill-opacity:1;stroke-width:0.623992"
       x="371.48877"
       y="131.96318"
       id="tspan26637">so far</tspan></text>
</svg>
